HIERARCHY
ROOT hip
{
  OFFSET -5.44982e-005 106.236 -1.42206
  CHANNELS 6 Xposition Yposition Zposition Zrotation Xrotation Yrotation
  JOINT abdomen
  {
    OFFSET 0 -1.186 -1.50178
    CHANNELS 6 Xposition Yposition Zposition Zrotation Xrotation Yrotation
    JOINT abdomen2
    {
      OFFSET 0 9.964 0.21338
      CHANNELS 6 Xposition Yposition Zposition Zrotation Xrotation Yrotation
      JOINT chest
      {
        OFFSET 0 13.134 -3.25729
        CHANNELS 6 Xposition Yposition Zposition Zrotation Xrotation Yrotation
        JOINT neck
        {
          OFFSET 0 20.686 -1.69049
          CHANNELS 6 Xposition Yposition Zposition Zrotation Xrotation Yrotation
          JOINT head
          {
            OFFSET 0 7.23799 -0.12368
            CHANNELS 6 Xposition Yposition Zposition Zrotation Xrotation Yrotation
            End Site
            {
              OFFSET 0 10.017 2.38717
            }
          }
        }
        JOINT lCollar
        {
          OFFSET 1.70688 20.075 5.0056
          CHANNELS 6 Xposition Yposition Zposition Zrotation Xrotation Yrotation
          JOINT lShldr
          {
            OFFSET 13.6458 -0.047012 -4.84902
            CHANNELS 6 Xposition Yposition Zposition Zrotation Xrotation Yrotation
            JOINT lForeArm
            {
              OFFSET 28.3255 -0.975903 2.28883
              CHANNELS 6 Xposition Yposition Zposition Zrotation Xrotation Yrotation
              JOINT lHand
              {
                OFFSET 22.1583 -0.530035 10.8316
                CHANNELS 6 Xposition Yposition Zposition Zrotation Xrotation Yrotation
                JOINT lThumb1
                {
                  OFFSET 0.785995 0.111999 2.58168
                  CHANNELS 6 Xposition Yposition Zposition Zrotation Xrotation Yrotation
                  JOINT lThumb2
                  {
                    OFFSET 0.3601 -0.878005 4.2331
                    CHANNELS 6 Xposition Yposition Zposition Zrotation Xrotation Yrotation
                    End Site
                    {
                      OFFSET 1.81271 -1.21601 2.2227
                    }
                  }
                }
                JOINT lCarpal1
                {
                  OFFSET 0.9571 1.114 1.76948
                  CHANNELS 6 Xposition Yposition Zposition Zrotation Xrotation Yrotation
                  JOINT lIndex1
                  {
                    OFFSET 4.1246 0.487 4.1451
                    CHANNELS 6 Xposition Yposition Zposition Zrotation Xrotation Yrotation
                    JOINT lIndex2
                    {
                      OFFSET 3.40521 -1.45401 2.7682
                      CHANNELS 6 Xposition Yposition Zposition Zrotation Xrotation Yrotation
                      End Site
                      {
                        OFFSET 1.4531 -1.795 1.2713
                      }
                    }
                  }
                  JOINT lMid1
                  {
                    OFFSET 5.6954 0.209991 2.1184
                    CHANNELS 6 Xposition Yposition Zposition Zrotation Xrotation Yrotation
                    JOINT lMid2
                    {
                      OFFSET 3.9766 -1.53999 2.3863
                      CHANNELS 6 Xposition Yposition Zposition Zrotation Xrotation Yrotation
                      End Site
                      {
                        OFFSET 1.4042 -1.926 1.125
                      }
                    }
                  }
                }
                JOINT lCarpal2
                {
                  OFFSET 2.09559 0.65999 -0.38939
                  CHANNELS 6 Xposition Yposition Zposition Zrotation Xrotation Yrotation
                  JOINT lRing1
                  {
                    OFFSET 5.0395 -0.089997 2.49707
                    CHANNELS 6 Xposition Yposition Zposition Zrotation Xrotation Yrotation
                    JOINT lRing2
                    {
                      OFFSET 3.7921 -1.552 1.4806
                      CHANNELS 6 Xposition Yposition Zposition Zrotation Xrotation Yrotation
                      End Site
                      {
                        OFFSET 1.4655 -1.808 0.9609
                      }
                    }
                  }
                  JOINT lPinky1
                  {
                    OFFSET 4.9141 -1.269 0.35915
                    CHANNELS 6 Xposition Yposition Zposition Zrotation Xrotation Yrotation
                    JOINT lPinky2
                    {
                      OFFSET 3.1477 -1.685 0.84623
                      CHANNELS 6 Xposition Yposition Zposition Zrotation Xrotation Yrotation
                      End Site
                      {
                        OFFSET 0.805505 -1.58499 0.79549
                      }
                    }
                  }
                }
              }
            }
          }
        }
        JOINT rCollar
        {
          OFFSET -1.70688 20.075 5.0056
          CHANNELS 6 Xposition Yposition Zposition Zrotation Xrotation Yrotation
          JOINT rShldr
          {
            OFFSET -13.6458 -0.047012 -4.84902
            CHANNELS 6 Xposition Yposition Zposition Zrotation Xrotation Yrotation
            JOINT rForeArm
            {
              OFFSET -28.3255 -0.975903 2.28883
              CHANNELS 6 Xposition Yposition Zposition Zrotation Xrotation Yrotation
              JOINT rHand
              {
                OFFSET -22.1583 -0.530036 10.8316
                CHANNELS 6 Xposition Yposition Zposition Zrotation Xrotation Yrotation
                JOINT rThumb1
                {
                  OFFSET -0.785995 0.111999 2.58168
                  CHANNELS 6 Xposition Yposition Zposition Zrotation Xrotation Yrotation
                  JOINT rThumb2
                  {
                    OFFSET -0.3601 -0.878005 4.2331
                    CHANNELS 6 Xposition Yposition Zposition Zrotation Xrotation Yrotation
                    End Site
                    {
                      OFFSET -1.81271 -1.21601 2.2227
                    }
                  }
                }
                JOINT rCarpal1
                {
                  OFFSET -0.9571 1.114 1.76948
                  CHANNELS 6 Xposition Yposition Zposition Zrotation Xrotation Yrotation
                  JOINT rIndex1
                  {
                    OFFSET -4.1246 0.487 4.1451
                    CHANNELS 6 Xposition Yposition Zposition Zrotation Xrotation Yrotation
                    JOINT rIndex2
                    {
                      OFFSET -3.40521 -1.45401 2.7682
                      CHANNELS 6 Xposition Yposition Zposition Zrotation Xrotation Yrotation
                      End Site
                      {
                        OFFSET -1.4531 -1.795 1.2713
                      }
                    }
                  }
                  JOINT rMid1
                  {
                    OFFSET -5.6954 0.209991 2.1184
                    CHANNELS 6 Xposition Yposition Zposition Zrotation Xrotation Yrotation
                    JOINT rMid2
                    {
                      OFFSET -3.9766 -1.53999 2.3863
                      CHANNELS 6 Xposition Yposition Zposition Zrotation Xrotation Yrotation
                      End Site
                      {
                        OFFSET -1.4042 -1.926 1.125
                      }
                    }
                  }
                }
                JOINT rCarpal2
                {
                  OFFSET -2.09559 0.65999 -0.38939
                  CHANNELS 6 Xposition Yposition Zposition Zrotation Xrotation Yrotation
                  JOINT rRing1
                  {
                    OFFSET -5.0395 -0.089997 2.49707
                    CHANNELS 6 Xposition Yposition Zposition Zrotation Xrotation Yrotation
                    JOINT rRing2
                    {
                      OFFSET -3.7921 -1.552 1.4806
                      CHANNELS 6 Xposition Yposition Zposition Zrotation Xrotation Yrotation
                      End Site
                      {
                        OFFSET -1.4655 -1.808 0.9609
                      }
                    }
                  }
                  JOINT rPinky1
                  {
                    OFFSET -4.9141 -1.269 0.35915
                    CHANNELS 6 Xposition Yposition Zposition Zrotation Xrotation Yrotation
                    JOINT rPinky2
                    {
                      OFFSET -3.1477 -1.685 0.84623
                      CHANNELS 6 Xposition Yposition Zposition Zrotation Xrotation Yrotation
                      End Site
                      {
                        OFFSET -0.805505 -1.58499 0.79549
                      }
                    }
                  }
                }
              }
            }
          }
        }
      }
    }
  }
  JOINT lThigh
  {
    OFFSET 8.367 -8.2066 0.59823
    CHANNELS 6 Xposition Yposition Zposition Zrotation Xrotation Yrotation
    JOINT lShin
    {
      OFFSET 2.19232 -43.463 -0.493181
      CHANNELS 6 Xposition Yposition Zposition Zrotation Xrotation Yrotation
      JOINT lFoot
      {
        OFFSET 0.733257 -45.8593 -2.64513
        CHANNELS 6 Xposition Yposition Zposition Zrotation Xrotation Yrotation
        End Site
        {
          OFFSET 2.6618 -4.26993 12.3931
        }
      }
    }
  }
  JOINT rThigh
  {
    OFFSET -8.367 -8.2066 0.59823
    CHANNELS 6 Xposition Yposition Zposition Zrotation Xrotation Yrotation
    JOINT rShin
    {
      OFFSET -2.19233 -43.463 -0.493108
      CHANNELS 6 Xposition Yposition Zposition Zrotation Xrotation Yrotation
      JOINT rFoot
      {
        OFFSET -0.733256 -45.8593 -2.64514
        CHANNELS 6 Xposition Yposition Zposition Zrotation Xrotation Yrotation
        End Site
        {
          OFFSET -2.6618 -4.26993 12.3931
        }
      }
    }
  }
}
MOTION
Frames:	4
Frame Time:	0.0333333
4.28064 98.8198 -4.76216 -6.97443 -6.0865 -52.5307 0 -1.186 -1.50178 -1.29808 6.09006 -2.66372 -4.44089e-016 9.964 0.21338 -3.30684 11.5445 0.891451 0 13.134 -3.25729 -2.95541 11.6852 -0.334734 1.77636e-015 20.686 -1.69049 10.513 -9.52464 8.41656 1.77636e-015 7.23799 -0.12368 -10.7332 10.4255 34.2224 1.70688 20.075 5.0056 4.36939 -5.86955 1.19732 13.6458 -0.047012 -4.84902 -35.9852 14.5207 15.3942 28.3255 -0.975903 2.28883 1.37176 -4.51098 -57.4565 22.1583 -0.530035 10.8316 -27.2825 -29.9251 -24.4024 0.785995 0.111999 2.58168 -3.18055e-015 -4.77083e-015 -3.97569e-015 0.3601 -0.878005 4.2331 -3.18055e-015 3.18055e-015 7.95139e-016 0.9571 1.114 1.76948 -3.18055e-015 -4.77083e-015 -3.97569e-015 4.1246 0.487 4.1451 -3.18055e-015 3.18055e-015 7.95139e-016 3.40521 -1.45401 2.7682 3.18055e-015 -1.59028e-015 3.18055e-015 5.6954 0.209991 2.1184 -3.18055e-015 3.18055e-015 7.95139e-016 3.9766 -1.53999 2.3863 3.18055e-015 -1.59028e-015 3.18055e-015 2.09559 0.65999 -0.38939 -3.18055e-015 -4.77083e-015 -3.97569e-015 5.0395 -0.089997 2.49707 -3.18055e-015 3.18055e-015 7.95139e-016 3.7921 -1.552 1.4806 3.18055e-015 -1.59028e-015 3.18055e-015 4.9141 -1.269 0.35915 -3.18055e-015 3.18055e-015 7.95139e-016 3.1477 -1.685 0.84623 3.18055e-015 -1.59028e-015 3.18055e-015 -1.70688 20.075 5.0056 5.83785 -8.13672 -2.86473 -13.6458 -0.047012 -4.84902 44.5581 8.93663 -20.3083 -28.3255 -0.975903 2.28883 -3.49736 -4.79042 62.3764 -22.1583 -0.530036 10.8316 16.1703 -36.3584 13.6804 -0.785995 0.111999 2.58168 1.19271e-015 3.18055e-015 -3.97569e-015 -0.3601 -0.878005 4.2331 -1.19271e-015 -3.18055e-015 1.59028e-015 -0.9571 1.114 1.76948 1.19271e-015 3.18055e-015 -3.97569e-015 -4.1246 0.487 4.1451 -1.19271e-015 -3.18055e-015 1.59028e-015 -3.40521 -1.45401 2.7682 4.77083e-015 3.18055e-015 1.19271e-015 -5.6954 0.209991 2.1184 -1.19271e-015 -3.18055e-015 1.59028e-015 -3.9766 -1.53999 2.3863 4.77083e-015 3.18055e-015 1.19271e-015 -2.09559 0.65999 -0.38939 1.19271e-015 3.18055e-015 -3.97569e-015 -5.0395 -0.089997 2.49707 -1.19271e-015 -3.18055e-015 1.59028e-015 -3.7921 -1.552 1.4806 4.77083e-015 3.18055e-015 1.19271e-015 -4.9141 -1.269 0.35915 -1.19271e-015 -3.18055e-015 1.59028e-015 -3.1477 -1.685 0.84623 4.77083e-015 3.18055e-015 1.19271e-015 8.367 -8.2066 0.59823 30.8293 -9.45815 18.372 2.19232 -43.463 -0.493181 -3.38006 41.5117 4.07188 0.733257 -45.8593 -2.64513 -21.5589 -10.9823 2.88015 -8.367 -8.2066 0.59823 -28.4791 -21.1497 -18.8026 -2.19233 -43.463 -0.493108 -2.70431 43.5626 0.214584 -0.733256 -45.8593 -2.64514 18.909 -4.90617 0.407947 
4.84044 98.875 -5.26362 -7.22404 -5.92543 -54.7929 8.88178e-016 -1.186 -1.50178 -1.30216 7.14779 -2.33829 0 9.964 0.21338 -2.99271 11.4537 0.778243 0 13.134 -3.25729 -2.68704 11.5792 -0.247781 -1.77636e-015 20.686 -1.69049 9.21359 -8.41864 9.42774 1.77636e-015 7.23799 -0.12368 -8.37938 9.12834 30.266 1.70688 20.075 5.0056 2.19883 -4.31325 0.353298 13.6458 -0.047012 -4.84902 -36.3959 6.50718 16.1674 28.3255 -0.975903 2.28883 1.16247 -4.905 -62.2926 22.1583 -0.530035 10.8316 -23.9046 -26.9065 -16.1253 0.785995 0.111999 2.58168 2.20695e-031 3.18055e-015 -3.97569e-015 0.3601 -0.878005 4.2331 -3.18055e-015 0 1.59028e-015 0.9571 1.114 1.76948 2.20695e-031 3.18055e-015 -3.97569e-015 4.1246 0.487 4.1451 -3.18055e-015 0 1.59028e-015 3.40521 -1.45401 2.7682 -1.76556e-031 3.18055e-015 3.18055e-015 5.6954 0.209991 2.1184 -3.18055e-015 0 1.59028e-015 3.9766 -1.53999 2.3863 -1.76556e-031 3.18055e-015 3.18055e-015 2.09559 0.65999 -0.38939 2.20695e-031 3.18055e-015 -3.97569e-015 5.0395 -0.089997 2.49707 -3.18055e-015 0 1.59028e-015 3.7921 -1.552 1.4806 -1.76556e-031 3.18055e-015 3.18055e-015 4.9141 -1.269 0.35915 -3.18055e-015 0 1.59028e-015 3.1477 -1.685 0.84623 -1.76556e-031 3.18055e-015 3.18055e-015 -1.70688 20.075 5.0056 7.32082 -6.99047 -0.0813004 -13.6458 -0.047012 -4.84902 41.9831 6.9115 -16.5541 -28.3255 -0.975903 2.28883 -3.60048 -4.60277 59.993 -22.1583 -0.530036 10.8316 13.0054 -39.2991 10.4055 -0.785995 0.111999 2.58168 1.16786e-015 0 -4.64659e-015 -0.3601 -0.878005 4.2331 1.31695e-015 0 2.5842e-015 -0.9571 1.114 1.76948 1.16786e-015 0 -4.64659e-015 -4.1246 0.487 4.1451 1.31695e-015 0 2.5842e-015 -3.40521 -1.45401 2.7682 1.98785e-015 0 -2.67117e-015 -5.6954 0.209991 2.1184 1.31695e-015 0 2.5842e-015 -3.9766 -1.53999 2.3863 1.98785e-015 0 -2.67117e-015 -2.09559 0.65999 -0.38939 1.16786e-015 0 -4.64659e-015 -5.0395 -0.089997 2.49707 1.31695e-015 0 2.5842e-015 -3.7921 -1.552 1.4806 1.98785e-015 0 -2.67117e-015 -4.9141 -1.269 0.35915 1.31695e-015 0 2.5842e-015 -3.1477 -1.685 0.84623 1.98785e-015 0 -2.67117e-015 8.367 -8.2066 0.59823 31.0632 -8.96793 18.1262 2.19232 -43.463 -0.493181 -3.29557 40.9729 3.99555 0.733257 -45.8593 -2.64513 -21.6985 -9.5448 2.62921 -8.367 -8.2066 0.59823 -25.9417 -23.3599 -11.8711 -2.19233 -43.463 -0.493108 -2.86084 45.1566 0.289041 -0.733256 -45.8593 -2.64514 20.4837 -3.32207 0.937508 
6.22795 98.9842 -5.72858 -7.25823 -6.22966 -57.1376 8.88179e-016 -1.186 -1.50178 -0.816223 8.19249 -2.30406 -8.88178e-016 9.964 0.21338 -2.94157 12.2048 0.740239 0 13.134 -3.25729 -2.6486 12.3244 -0.222507 0 20.686 -1.69049 9.06549 -6.77737 11.7491 0 7.23799 -0.12368 -8.53254 8.74533 26.9384 1.70688 20.075 5.0056 2.3529 -1.74758 -0.307776 13.6458 -0.047012 -4.84902 -38.0218 0.247002 13.8737 28.3255 -0.975903 2.28883 1.04583 -5.08663 -64.6269 22.1583 -0.530035 10.8316 -20.665 -26.4937 -11.2355 0.785995 0.111999 2.58168 -3.18055e-015 -6.36111e-015 -4.77083e-015 0.3601 -0.878005 4.2331 2.20695e-031 3.18055e-015 -3.97569e-015 0.9571 1.114 1.76948 -3.18055e-015 -6.36111e-015 -4.77083e-015 4.1246 0.487 4.1451 2.20695e-031 3.18055e-015 -3.97569e-015 3.40521 -1.45401 2.7682 -3.18055e-015 1.59028e-015 -1.11319e-014 5.6954 0.209991 2.1184 2.20695e-031 3.18055e-015 -3.97569e-015 3.9766 -1.53999 2.3863 -3.18055e-015 1.59028e-015 -1.11319e-014 2.09559 0.65999 -0.38939 -3.18055e-015 -6.36111e-015 -4.77083e-015 5.0395 -0.089997 2.49707 2.20695e-031 3.18055e-015 -3.97569e-015 3.7921 -1.552 1.4806 -3.18055e-015 1.59028e-015 -1.11319e-014 4.9141 -1.269 0.35915 2.20695e-031 3.18055e-015 -3.97569e-015 3.1477 -1.685 0.84623 -3.18055e-015 1.59028e-015 -1.11319e-014 -1.70688 20.075 5.0056 6.05095 -5.64846 2.62534 -13.6458 -0.047012 -4.84902 41.3564 0.988183 -14.3288 -28.3255 -0.975903 2.28883 -3.57677 -4.6319 60.3872 -22.1583 -0.530036 10.8316 14.2124 -40.5596 9.92547 -0.785995 0.111999 2.58168 -7.33018e-016 0 3.82039e-015 -0.3601 -0.878005 4.2331 1.97542e-015 -6.36111e-015 -3.4104e-015 -0.9571 1.114 1.76948 -7.33018e-016 0 3.82039e-015 -4.1246 0.487 4.1451 1.97542e-015 -6.36111e-015 -3.4104e-015 -3.40521 -1.45401 2.7682 -2.85753e-015 -6.36111e-015 2.92586e-015 -5.6954 0.209991 2.1184 1.97542e-015 -6.36111e-015 -3.4104e-015 -3.9766 -1.53999 2.3863 -2.85753e-015 -6.36111e-015 2.92586e-015 -2.09559 0.65999 -0.38939 -7.33018e-016 0 3.82039e-015 -5.0395 -0.089997 2.49707 1.97542e-015 -6.36111e-015 -3.4104e-015 -3.7921 -1.552 1.4806 -2.85753e-015 -6.36111e-015 2.92586e-015 -4.9141 -1.269 0.35915 1.97542e-015 -6.36111e-015 -3.4104e-015 -3.1477 -1.685 0.84623 -2.85753e-015 -6.36111e-015 2.92586e-015 8.367 -8.2066 0.59823 30.7487 -8.84692 17.9156 2.19232 -43.463 -0.493181 -3.30638 41.0573 4.06032 0.733257 -45.8593 -2.64513 -22.0714 -7.53115 2.29194 -8.367 -8.2066 0.59823 -24.7334 -25.8181 -3.60231 -2.19233 -43.463 -0.493108 -2.77968 44.0107 0.137109 -0.733256 -45.8593 -2.64514 24.0791 4.15394 6.44787 
7.89446 99.055 -6.30314 -7.0978 -6.7341 -59.3226 0 -1.186 -1.50178 -0.0879587 9.23345 -2.40907 -8.88179e-016 9.964 0.21338 -2.95057 13.2693 0.722444 -8.88179e-016 13.134 -3.25729 -2.66252 13.3903 -0.221644 0 20.686 -1.69049 9.29514 -4.93355 14.4104 0 7.23799 -0.12368 -9.63809 8.66854 23.8246 1.70688 20.075 5.0056 3.17738 1.15218 -0.733691 13.6458 -0.047012 -4.84902 -40.0083 -5.34957 10.6124 28.3255 -0.975903 2.28883 1.02687 -5.17505 -65.8107 22.1583 -0.530035 10.8316 -17.8331 -27.0853 -7.90543 0.785995 0.111999 2.58168 6.36111e-015 -1.59028e-015 3.18055e-015 0.3601 -0.878005 4.2331 6.36111e-015 1.59028e-015 4.77083e-015 0.9571 1.114 1.76948 6.36111e-015 -1.59028e-015 3.18055e-015 4.1246 0.487 4.1451 6.36111e-015 1.59028e-015 4.77083e-015 3.40521 -1.45401 2.7682 1.32417e-031 1.59028e-015 -4.77083e-015 5.6954 0.209991 2.1184 6.36111e-015 1.59028e-015 4.77083e-015 3.9766 -1.53999 2.3863 1.32417e-031 1.59028e-015 -4.77083e-015 2.09559 0.65999 -0.38939 6.36111e-015 -1.59028e-015 3.18055e-015 5.0395 -0.089997 2.49707 6.36111e-015 1.59028e-015 4.77083e-015 3.7921 -1.552 1.4806 1.32417e-031 1.59028e-015 -4.77083e-015 4.9141 -1.269 0.35915 6.36111e-015 1.59028e-015 4.77083e-015 3.1477 -1.685 0.84623 1.32417e-031 1.59028e-015 -4.77083e-015 -1.70688 20.075 5.0056 3.66265 -4.46597 5.28508 -13.6458 -0.047012 -4.84902 41.5355 -6.44241 -12.9612 -28.3255 -0.975903 2.28883 -3.51116 -4.78207 62.2586 -22.1583 -0.530036 10.8316 16.8436 -41.3714 9.92178 -0.785995 0.111999 2.58168 -2.38542e-015 0 -1.59028e-015 -0.3601 -0.878005 4.2331 5.96354e-016 0 1.49089e-015 -0.9571 1.114 1.76948 -2.38542e-015 0 -1.59028e-015 -4.1246 0.487 4.1451 5.96354e-016 0 1.49089e-015 -3.40521 -1.45401 2.7682 -1.98785e-016 -3.18055e-015 1.39149e-015 -5.6954 0.209991 2.1184 5.96354e-016 0 1.49089e-015 -3.9766 -1.53999 2.3863 -1.98785e-016 -3.18055e-015 1.39149e-015 -2.09559 0.65999 -0.38939 -2.38542e-015 0 -1.59028e-015 -5.0395 -0.089997 2.49707 5.96354e-016 0 1.49089e-015 -3.7921 -1.552 1.4806 -1.98785e-016 -3.18055e-015 1.39149e-015 -4.9141 -1.269 0.35915 5.96354e-016 0 1.49089e-015 -3.1477 -1.685 0.84623 -1.98785e-016 -3.18055e-015 1.39149e-015 8.367 -8.2066 0.59823 30.2044 -8.97781 17.6521 2.19232 -43.463 -0.493181 -3.31735 41.1803 4.1402 0.733257 -45.8593 -2.64513 -22.7969 -5.31782 1.88445 -8.367 -8.2066 0.59823 -24.454 -27.4763 4.92219 -2.19233 -43.463 -0.493108 -2.50321 40.3272 -0.21195 -0.733256 -45.8593 -2.64514 29.7807 13.9433 13.4286 
